<mxfile host="app.diagrams.net" modified="2023-07-04T12:22:26.169Z" agent="Mozilla/5.0 (Windows NT 10.0; Win64; x64) AppleWebKit/537.36 (KHTML, like Gecko) Chrome/114.0.0.0 Safari/537.36 Edg/114.0.1823.67" etag="HQyvnCABOgrkvBdXmcIK" version="21.5.2" type="device">
  <diagram name="第 1 页" id="NIifMNCe-nP9I4ykHrCv">
    <mxGraphModel dx="1690" dy="972" grid="0" gridSize="10" guides="1" tooltips="1" connect="1" arrows="1" fold="1" page="1" pageScale="1" pageWidth="827" pageHeight="1169" math="0" shadow="0">
      <root>
        <mxCell id="0" />
        <mxCell id="1" parent="0" />
        <mxCell id="MufSjEgR5-0OaPSTKgV7-3" value="let &lt;font color=&quot;#ff3333&quot;&gt;&lt;b style=&quot;&quot;&gt;mut&lt;/b&gt; &lt;/font&gt;x = uninit()" style="rounded=0;whiteSpace=wrap;html=1;fontSize=13;" vertex="1" parent="1">
          <mxGeometry x="50" y="265" width="120" height="60" as="geometry" />
        </mxCell>
        <mxCell id="MufSjEgR5-0OaPSTKgV7-4" value="new()" style="rounded=0;whiteSpace=wrap;html=1;fontSize=13;" vertex="1" parent="1">
          <mxGeometry x="293" y="265" width="120" height="60" as="geometry" />
        </mxCell>
        <mxCell id="MufSjEgR5-0OaPSTKgV7-5" value="zeroed()" style="rounded=0;whiteSpace=wrap;html=1;fontSize=13;" vertex="1" parent="1">
          <mxGeometry x="530" y="265" width="120" height="60" as="geometry" />
        </mxCell>
        <mxCell id="MufSjEgR5-0OaPSTKgV7-19" value="透明包装:&lt;br&gt;union MaybeUninit&amp;lt;T&amp;gt; {&lt;br style=&quot;font-size: 13px;&quot;&gt;&amp;nbsp; &amp;nbsp; uninit: (),&lt;br style=&quot;font-size: 13px;&quot;&gt;&amp;nbsp; &amp;nbsp; value: ManuallyDrop&amp;lt;T&amp;gt;&lt;br style=&quot;font-size: 13px;&quot;&gt;}" style="rounded=1;whiteSpace=wrap;html=1;fillColor=#a20025;fontColor=#ffffff;strokeColor=#6F0000;align=left;spacingLeft=10;fontSize=13;fontStyle=1" vertex="1" parent="1">
          <mxGeometry x="243" y="425" width="220" height="85" as="geometry" />
        </mxCell>
        <mxCell id="MufSjEgR5-0OaPSTKgV7-20" value="&amp;amp;T" style="rounded=1;whiteSpace=wrap;html=1;fillColor=#f8cecc;strokeColor=#b85450;fontSize=13;" vertex="1" parent="1">
          <mxGeometry x="370" y="850" width="120" height="60" as="geometry" />
        </mxCell>
        <mxCell id="MufSjEgR5-0OaPSTKgV7-21" value="&amp;amp;mut T" style="rounded=1;whiteSpace=wrap;html=1;fillColor=#f8cecc;strokeColor=#b85450;fontSize=13;" vertex="1" parent="1">
          <mxGeometry x="533" y="850" width="120" height="60" as="geometry" />
        </mxCell>
        <mxCell id="MufSjEgR5-0OaPSTKgV7-22" value="T" style="rounded=1;whiteSpace=wrap;html=1;fillColor=#60a917;strokeColor=#2D7600;fontSize=13;fontColor=#ffffff;" vertex="1" parent="1">
          <mxGeometry x="53" y="850" width="120" height="60" as="geometry" />
        </mxCell>
        <mxCell id="MufSjEgR5-0OaPSTKgV7-23" value="创建单元值 ()" style="endArrow=classic;html=1;rounded=0;exitX=0.5;exitY=1;exitDx=0;exitDy=0;fontSize=13;" edge="1" parent="1" source="MufSjEgR5-0OaPSTKgV7-3">
          <mxGeometry width="50" height="50" relative="1" as="geometry">
            <mxPoint x="493" y="525" as="sourcePoint" />
            <mxPoint x="307" y="425" as="targetPoint" />
          </mxGeometry>
        </mxCell>
        <mxCell id="MufSjEgR5-0OaPSTKgV7-24" value="创建 value: ManuallyDrop&amp;lt;T&amp;gt;" style="endArrow=classic;html=1;rounded=0;exitX=0.5;exitY=1;exitDx=0;exitDy=0;fontSize=13;" edge="1" parent="1" source="MufSjEgR5-0OaPSTKgV7-4" target="MufSjEgR5-0OaPSTKgV7-19">
          <mxGeometry x="0.0074" width="50" height="50" relative="1" as="geometry">
            <mxPoint x="493" y="525" as="sourcePoint" />
            <mxPoint x="543" y="475" as="targetPoint" />
            <mxPoint as="offset" />
          </mxGeometry>
        </mxCell>
        <mxCell id="MufSjEgR5-0OaPSTKgV7-25" value="" style="endArrow=classic;html=1;rounded=0;exitX=0.5;exitY=1;exitDx=0;exitDy=0;entryX=0.75;entryY=0;entryDx=0;entryDy=0;fontSize=13;" edge="1" parent="1" source="MufSjEgR5-0OaPSTKgV7-5" target="MufSjEgR5-0OaPSTKgV7-19">
          <mxGeometry width="50" height="50" relative="1" as="geometry">
            <mxPoint x="493" y="525" as="sourcePoint" />
            <mxPoint x="363" y="495" as="targetPoint" />
          </mxGeometry>
        </mxCell>
        <mxCell id="MufSjEgR5-0OaPSTKgV7-58" value="创建value,位模式置为0" style="edgeLabel;html=1;align=center;verticalAlign=middle;resizable=0;points=[];fontSize=13;" vertex="1" connectable="0" parent="MufSjEgR5-0OaPSTKgV7-25">
          <mxGeometry x="-0.0764" y="4" relative="1" as="geometry">
            <mxPoint as="offset" />
          </mxGeometry>
        </mxCell>
        <mxCell id="MufSjEgR5-0OaPSTKgV7-26" value="*mut T" style="rounded=1;whiteSpace=wrap;html=1;fillColor=#f8cecc;strokeColor=#b85450;fontSize=13;" vertex="1" parent="1">
          <mxGeometry x="530" y="520" width="120" height="60" as="geometry" />
        </mxCell>
        <mxCell id="MufSjEgR5-0OaPSTKgV7-27" value="" style="endArrow=classic;html=1;rounded=0;exitX=1;exitY=0.5;exitDx=0;exitDy=0;fontSize=13;" edge="1" parent="1" source="MufSjEgR5-0OaPSTKgV7-19" target="MufSjEgR5-0OaPSTKgV7-28">
          <mxGeometry width="50" height="50" relative="1" as="geometry">
            <mxPoint x="473" y="720" as="sourcePoint" />
            <mxPoint x="523" y="410" as="targetPoint" />
          </mxGeometry>
        </mxCell>
        <mxCell id="MufSjEgR5-0OaPSTKgV7-28" value="as_mut_ptr()" style="rounded=0;whiteSpace=wrap;html=1;fontSize=13;" vertex="1" parent="1">
          <mxGeometry x="530" y="437.5" width="120" height="60" as="geometry" />
        </mxCell>
        <mxCell id="MufSjEgR5-0OaPSTKgV7-29" value="" style="endArrow=classic;html=1;rounded=0;exitX=0.5;exitY=1;exitDx=0;exitDy=0;fontSize=13;" edge="1" parent="1" source="MufSjEgR5-0OaPSTKgV7-28" target="MufSjEgR5-0OaPSTKgV7-26">
          <mxGeometry width="50" height="50" relative="1" as="geometry">
            <mxPoint x="450" y="610" as="sourcePoint" />
            <mxPoint x="500" y="560" as="targetPoint" />
          </mxGeometry>
        </mxCell>
        <mxCell id="MufSjEgR5-0OaPSTKgV7-30" value="&lt;font color=&quot;#ff8000&quot;&gt;unsafe&lt;/font&gt;&lt;br&gt;assume_init()" style="rounded=0;whiteSpace=wrap;html=1;fontSize=13;" vertex="1" parent="1">
          <mxGeometry x="53" y="730" width="120" height="60" as="geometry" />
        </mxCell>
        <mxCell id="MufSjEgR5-0OaPSTKgV7-32" value="" style="endArrow=classic;html=1;rounded=0;exitX=0.5;exitY=1;exitDx=0;exitDy=0;fontSize=13;" edge="1" parent="1" source="MufSjEgR5-0OaPSTKgV7-19" target="MufSjEgR5-0OaPSTKgV7-30">
          <mxGeometry width="50" height="50" relative="1" as="geometry">
            <mxPoint x="493" y="695" as="sourcePoint" />
            <mxPoint x="543" y="645" as="targetPoint" />
          </mxGeometry>
        </mxCell>
        <mxCell id="MufSjEgR5-0OaPSTKgV7-33" value="移出内部值" style="endArrow=classic;html=1;rounded=0;exitX=0.5;exitY=1;exitDx=0;exitDy=0;fontSize=13;" edge="1" parent="1" source="MufSjEgR5-0OaPSTKgV7-30" target="MufSjEgR5-0OaPSTKgV7-22">
          <mxGeometry width="50" height="50" relative="1" as="geometry">
            <mxPoint x="63" y="880" as="sourcePoint" />
            <mxPoint x="113" y="830" as="targetPoint" />
          </mxGeometry>
        </mxCell>
        <mxCell id="MufSjEgR5-0OaPSTKgV7-34" value="as_ptr()" style="rounded=0;whiteSpace=wrap;html=1;fontSize=13;" vertex="1" parent="1">
          <mxGeometry x="50" y="437.5" width="120" height="60" as="geometry" />
        </mxCell>
        <mxCell id="MufSjEgR5-0OaPSTKgV7-35" value="" style="endArrow=classic;html=1;rounded=0;exitX=0.5;exitY=1;exitDx=0;exitDy=0;fontSize=13;" edge="1" parent="1" source="MufSjEgR5-0OaPSTKgV7-34">
          <mxGeometry width="50" height="50" relative="1" as="geometry">
            <mxPoint x="490" y="760" as="sourcePoint" />
            <mxPoint x="110" y="520" as="targetPoint" />
          </mxGeometry>
        </mxCell>
        <mxCell id="MufSjEgR5-0OaPSTKgV7-36" value="" style="endArrow=classic;html=1;rounded=0;exitX=0;exitY=0.5;exitDx=0;exitDy=0;entryX=1;entryY=0.5;entryDx=0;entryDy=0;fontSize=13;" edge="1" parent="1" source="MufSjEgR5-0OaPSTKgV7-19" target="MufSjEgR5-0OaPSTKgV7-34">
          <mxGeometry width="50" height="50" relative="1" as="geometry">
            <mxPoint x="473" y="720" as="sourcePoint" />
            <mxPoint x="523" y="670" as="targetPoint" />
          </mxGeometry>
        </mxCell>
        <mxCell id="MufSjEgR5-0OaPSTKgV7-37" value="&lt;font color=&quot;#ff8000&quot;&gt;unsafe&lt;/font&gt;&lt;br&gt;assume_init_mut()" style="rounded=0;whiteSpace=wrap;html=1;fontSize=13;" vertex="1" parent="1">
          <mxGeometry x="533" y="730" width="120" height="60" as="geometry" />
        </mxCell>
        <mxCell id="MufSjEgR5-0OaPSTKgV7-38" value="" style="endArrow=classic;html=1;rounded=0;entryX=0.5;entryY=0;entryDx=0;entryDy=0;exitX=0.5;exitY=1;exitDx=0;exitDy=0;fontSize=13;" edge="1" parent="1" source="MufSjEgR5-0OaPSTKgV7-19" target="MufSjEgR5-0OaPSTKgV7-37">
          <mxGeometry width="50" height="50" relative="1" as="geometry">
            <mxPoint x="493" y="695" as="sourcePoint" />
            <mxPoint x="543" y="645" as="targetPoint" />
          </mxGeometry>
        </mxCell>
        <mxCell id="MufSjEgR5-0OaPSTKgV7-39" value="取内部引用" style="endArrow=classic;html=1;rounded=0;fontSize=13;" edge="1" parent="1" source="MufSjEgR5-0OaPSTKgV7-37" target="MufSjEgR5-0OaPSTKgV7-21">
          <mxGeometry width="50" height="50" relative="1" as="geometry">
            <mxPoint x="750" y="790" as="sourcePoint" />
            <mxPoint x="750" y="850" as="targetPoint" />
          </mxGeometry>
        </mxCell>
        <mxCell id="MufSjEgR5-0OaPSTKgV7-40" value="&lt;font color=&quot;#ff8000&quot;&gt;unsafe&lt;/font&gt;&lt;br&gt;assume_init_ref()" style="rounded=0;whiteSpace=wrap;html=1;fontSize=13;" vertex="1" parent="1">
          <mxGeometry x="370" y="730" width="120" height="60" as="geometry" />
        </mxCell>
        <mxCell id="MufSjEgR5-0OaPSTKgV7-41" value="" style="endArrow=classic;html=1;rounded=0;exitX=0.5;exitY=1;exitDx=0;exitDy=0;fontSize=13;" edge="1" parent="1" source="MufSjEgR5-0OaPSTKgV7-19" target="MufSjEgR5-0OaPSTKgV7-40">
          <mxGeometry width="50" height="50" relative="1" as="geometry">
            <mxPoint x="493" y="695" as="sourcePoint" />
            <mxPoint x="543" y="645" as="targetPoint" />
          </mxGeometry>
        </mxCell>
        <mxCell id="MufSjEgR5-0OaPSTKgV7-42" value="取内部引用" style="endArrow=classic;html=1;rounded=0;fontSize=13;" edge="1" parent="1" source="MufSjEgR5-0OaPSTKgV7-40" target="MufSjEgR5-0OaPSTKgV7-20">
          <mxGeometry width="50" height="50" relative="1" as="geometry">
            <mxPoint x="700" y="780" as="sourcePoint" />
            <mxPoint x="750" y="730" as="targetPoint" />
          </mxGeometry>
        </mxCell>
        <mxCell id="MufSjEgR5-0OaPSTKgV7-43" value="*const T" style="rounded=1;whiteSpace=wrap;html=1;fillColor=#f8cecc;strokeColor=#b85450;fontSize=13;" vertex="1" parent="1">
          <mxGeometry x="50" y="520" width="120" height="60" as="geometry" />
        </mxCell>
        <mxCell id="MufSjEgR5-0OaPSTKgV7-45" value="&lt;font color=&quot;#ff8000&quot;&gt;unsafe&lt;/font&gt;&lt;br&gt;assume_init_drop()" style="rounded=0;whiteSpace=wrap;html=1;fontSize=13;" vertex="1" parent="1">
          <mxGeometry x="213" y="730" width="120" height="60" as="geometry" />
        </mxCell>
        <mxCell id="MufSjEgR5-0OaPSTKgV7-46" value="遗弃" style="rounded=1;whiteSpace=wrap;html=1;fontSize=13;" vertex="1" parent="1">
          <mxGeometry x="213" y="850" width="120" height="60" as="geometry" />
        </mxCell>
        <mxCell id="MufSjEgR5-0OaPSTKgV7-49" value="" style="endArrow=classic;html=1;rounded=0;exitX=0.5;exitY=1;exitDx=0;exitDy=0;entryX=0.5;entryY=0;entryDx=0;entryDy=0;fontSize=13;" edge="1" parent="1" source="MufSjEgR5-0OaPSTKgV7-19" target="MufSjEgR5-0OaPSTKgV7-45">
          <mxGeometry width="50" height="50" relative="1" as="geometry">
            <mxPoint x="383" y="555" as="sourcePoint" />
            <mxPoint x="590" y="725" as="targetPoint" />
          </mxGeometry>
        </mxCell>
        <mxCell id="MufSjEgR5-0OaPSTKgV7-47" value="x.write(T)" style="rounded=0;whiteSpace=wrap;html=1;dashed=1;fontSize=13;" vertex="1" parent="1">
          <mxGeometry x="53" y="615" width="517" height="60" as="geometry" />
        </mxCell>
        <mxCell id="MufSjEgR5-0OaPSTKgV7-50" value="" style="endArrow=classic;html=1;rounded=0;exitX=0;exitY=0.5;exitDx=0;exitDy=0;fontSize=13;" edge="1" parent="1" source="MufSjEgR5-0OaPSTKgV7-26" target="MufSjEgR5-0OaPSTKgV7-51">
          <mxGeometry width="50" height="50" relative="1" as="geometry">
            <mxPoint x="840" y="695" as="sourcePoint" />
            <mxPoint x="590" y="625" as="targetPoint" />
            <Array as="points">
              <mxPoint x="480" y="550" />
            </Array>
          </mxGeometry>
        </mxCell>
        <mxCell id="MufSjEgR5-0OaPSTKgV7-51" value="ptr.write(T)" style="rounded=0;whiteSpace=wrap;html=1;dashed=1;fontSize=13;" vertex="1" parent="1">
          <mxGeometry x="420" y="625" width="120" height="40" as="geometry" />
        </mxCell>
        <mxCell id="MufSjEgR5-0OaPSTKgV7-52" value="" style="endArrow=classic;html=1;rounded=0;exitX=0.5;exitY=1;exitDx=0;exitDy=0;entryX=0.5;entryY=0;entryDx=0;entryDy=0;fontSize=13;" edge="1" parent="1" source="MufSjEgR5-0OaPSTKgV7-45" target="MufSjEgR5-0OaPSTKgV7-46">
          <mxGeometry width="50" height="50" relative="1" as="geometry">
            <mxPoint x="506" y="700" as="sourcePoint" />
            <mxPoint x="556" y="650" as="targetPoint" />
          </mxGeometry>
        </mxCell>
        <mxCell id="MufSjEgR5-0OaPSTKgV7-54" value="初始化写入内容，&lt;b style=&quot;&quot;&gt;&lt;font&gt;只能写一次&lt;/font&gt;&lt;/b&gt;" style="text;html=1;strokeColor=none;fillColor=none;align=center;verticalAlign=middle;whiteSpace=wrap;rounded=0;fontSize=13;fontColor=#B5739D;" vertex="1" parent="1">
          <mxGeometry x="43" y="630" width="200" height="30" as="geometry" />
        </mxCell>
        <mxCell id="MufSjEgR5-0OaPSTKgV7-59" value="重借用&lt;br&gt;&lt;font color=&quot;#ff8000&quot;&gt;unsafe &lt;/font&gt;{ &amp;amp;mut *ptr }" style="rounded=0;whiteSpace=wrap;html=1;" vertex="1" parent="1">
          <mxGeometry x="600" y="615" width="140" height="60" as="geometry" />
        </mxCell>
        <mxCell id="MufSjEgR5-0OaPSTKgV7-61" value="" style="endArrow=classic;html=1;rounded=0;exitX=1;exitY=0.5;exitDx=0;exitDy=0;entryX=0.5;entryY=0;entryDx=0;entryDy=0;" edge="1" parent="1" source="MufSjEgR5-0OaPSTKgV7-26" target="MufSjEgR5-0OaPSTKgV7-59">
          <mxGeometry width="50" height="50" relative="1" as="geometry">
            <mxPoint x="520" y="700" as="sourcePoint" />
            <mxPoint x="570" y="650" as="targetPoint" />
            <Array as="points">
              <mxPoint x="670" y="550" />
            </Array>
          </mxGeometry>
        </mxCell>
        <mxCell id="MufSjEgR5-0OaPSTKgV7-62" value="" style="endArrow=classic;html=1;rounded=0;exitX=0.5;exitY=1;exitDx=0;exitDy=0;entryX=1;entryY=0.5;entryDx=0;entryDy=0;" edge="1" parent="1" source="MufSjEgR5-0OaPSTKgV7-59" target="MufSjEgR5-0OaPSTKgV7-21">
          <mxGeometry width="50" height="50" relative="1" as="geometry">
            <mxPoint x="520" y="700" as="sourcePoint" />
            <mxPoint x="570" y="650" as="targetPoint" />
            <Array as="points">
              <mxPoint x="670" y="880" />
            </Array>
          </mxGeometry>
        </mxCell>
        <mxCell id="MufSjEgR5-0OaPSTKgV7-63" value="START" style="text;html=1;strokeColor=none;fillColor=none;align=center;verticalAlign=middle;whiteSpace=wrap;rounded=0;fontColor=#4D4D4D;" vertex="1" parent="1">
          <mxGeometry x="203" y="280" width="60" height="30" as="geometry" />
        </mxCell>
        <mxCell id="MufSjEgR5-0OaPSTKgV7-64" value="START" style="text;html=1;strokeColor=none;fillColor=none;align=center;verticalAlign=middle;whiteSpace=wrap;rounded=0;fontColor=#4D4D4D;" vertex="1" parent="1">
          <mxGeometry x="440" y="280" width="60" height="30" as="geometry" />
        </mxCell>
        <mxCell id="MufSjEgR5-0OaPSTKgV7-67" value="&amp;nbsp; 场景:&lt;br style=&quot;border-color: var(--border-color); font-size: 13px;&quot;&gt;&lt;span style=&quot;font-size: 13px;&quot;&gt;&amp;nbsp; ① 创建未初始化变量&lt;/span&gt;&lt;br style=&quot;border-color: var(--border-color); font-size: 13px;&quot;&gt;&lt;span style=&quot;font-size: 13px;&quot;&gt;&amp;nbsp; ② 如果数组元素很大, 逐字段初始化元素, 按需分配内存, 按需销毁内存&lt;/span&gt;&lt;br style=&quot;border-color: var(--border-color); font-size: 13px;&quot;&gt;&lt;span style=&quot;font-size: 13px;&quot;&gt;&amp;nbsp; ③ 逐字段初始化结构体&lt;/span&gt;&lt;br style=&quot;border-color: var(--border-color); font-size: 13px;&quot;&gt;&lt;br style=&quot;border-color: var(--border-color); font-size: 13px;&quot;&gt;&lt;span style=&quot;font-size: 13px;&quot;&gt;&amp;nbsp; 注意:&lt;/span&gt;&lt;br style=&quot;border-color: var(--border-color); font-size: 13px;&quot;&gt;&lt;span style=&quot;font-size: 13px;&quot;&gt;&amp;nbsp; ① 写入: write时不会销毁原值, 因此多次write会导致泄露&lt;/span&gt;&lt;br style=&quot;border-color: var(--border-color); font-size: 13px;&quot;&gt;&lt;div style=&quot;font-size: 13px;&quot;&gt;&lt;span style=&quot;font-size: 13px; background-color: initial;&quot;&gt;&amp;nbsp; ② 遗弃: MaybeUninit未实现Drop, 因此必须assume_init()读出销毁, 或 assume_init_drop() 销毁&lt;/span&gt;&lt;/div&gt;" style="rounded=0;whiteSpace=wrap;html=1;align=left;strokeColor=#E3E3E3;fontSize=13;" vertex="1" parent="1">
          <mxGeometry x="46" y="109" width="690" height="150" as="geometry" />
        </mxCell>
      </root>
    </mxGraphModel>
  </diagram>
</mxfile>
